<svg id="Layer_1" data-name="Layer 1" xmlns="http://www.w3.org/2000/svg" viewBox="0 0 23.79 26.2"><defs><style>.cls-1,.cls-2,.cls-3{fill:none;stroke:#fff;}.cls-1{stroke-miterlimit:10;}.cls-2,.cls-3{stroke-linecap:round;stroke-linejoin:round;}.cls-3{stroke-width:2px;}.cls-4{fill:#fff;}</style></defs><title>icon_reservation</title><circle class="cls-1" cx="9.72" cy="15.48" r="4.84"/><line class="cls-2" x1="13.7" y1="18.25" x2="17.62" y2="20.99"/><line class="cls-3" x1="16.02" y1="19.87" x2="19.62" y2="22.39"/><path class="cls-4" d="M25.89,9.86V24.78A1.92,1.92,0,0,1,24,26.71H6a1.92,1.92,0,0,1-1.93-1.93V9.86H25.89m1-1H3.11V24.78A2.93,2.93,0,0,0,6,27.71H24a2.93,2.93,0,0,0,2.93-2.93V8.86Z" transform="translate(-3.11 -1.52)"/><path class="cls-4" d="M3.61,8.36V7.93A2.43,2.43,0,0,1,6,5.5H7.27v.12a1.68,1.68,0,0,0,3.36,0V5.5h8.74v.12a1.68,1.68,0,1,0,3.36,0V5.5H24a2.43,2.43,0,0,1,2.43,2.43v.43Z" transform="translate(-3.11 -1.52)"/><path class="cls-4" d="M24,6a1.94,1.94,0,0,1,1.93,1.86H4.11A1.94,1.94,0,0,1,6,6H6.8a2.18,2.18,0,0,0,4.3,0h7.8a2.18,2.18,0,0,0,4.3,0H24m0-1H22.23v.62a1.18,1.18,0,1,1-2.36,0V5H10.13v.62a1.18,1.18,0,1,1-2.36,0V5H6A2.93,2.93,0,0,0,3.11,7.93v.93H26.89V7.93A2.93,2.93,0,0,0,24,5Z" transform="translate(-3.11 -1.52)"/><rect class="cls-1" x="5.45" y="0.5" width="0.78" height="3.95" rx="0.39"/><rect class="cls-1" x="17.55" y="0.5" width="0.78" height="3.95" rx="0.39"/></svg>